<?xml version="1.0" encoding="utf-8"?>
<?xml-stylesheet type="text/xsl" href="rss1.xsl"?>
<rss version="2.0" xmlns:atom="http://www.w3.org/2005/Atom" xmlns:content="http://purl.org/rss/1.0/modules/content/" xmlns:dc="http://purl.org/dc/elements/1.1/" xmlns:media="http://search.yahoo.com/mrss/">
<channel>
 <title>Getty</title>
 <link>http://www.gettyimg.com/</link>
 <atom:link href="http://www.gettyimg.com/" rel="self" type="application/rss+xml" />

 
                <item>
                <title><![CDATA[【Singles (lossless)】FLAC - Céline Dion, Majestic, The Jammin Kid, Jess Bays - Set My Heart On Fire (I'm Alive x And The Beat Goes On) (Jess Bays Remix)]]></title>
                <link><![CDATA[https://sharemania.us/threads/c%C3%A9line-dion-majestic-the-jammin-kid-jess-bays-set-my-heart-on-fire-im-alive-x-and-the-beat-goes-on-jess-bays-remix.250296/]]></link>
                <description><![CDATA[<article>
<blockquote class="messageText SelectQuoteContainer ugc baseHtml">
<div style="text-align: center"><img src="https://i.imgur.com/Rc5D9Zi.jpeg" class="bbCodeImage LbImage" alt="[​IMG]" data-url="https://i.imgur.com/Rc5D9Zi.jpeg" style=""><br>
<b><br>
Artist / Group: </b>Céline Dion, Majestic, The Jammin Kid &amp; Jess Bays<br>
<b><b><b><b>Single / Album:</b> </b></b></b>Set My Heart On Fire (I'm Alive x And The Beat Goes On) (Jess Bays Remix)<br>
<b><b><b><b>Date of Release:</b> </b></b></b>2024-07-19<br>
<b><b><b>Genre: </b></b></b>Pop / Dance<br>
<b><b><b><b>Size:</b> </b></b></b>31,7 MB<br>
<b><b><b>Format: </b></b></b>FLAC (24B/44.1kHz)<br>
<b><b><b><b><b>Source:</b></b> </b></b></b>Qobuz<br>
<br>
<div class="bbCodeBlock bbCodeCode">
<div class="type">Code:</div>
<pre>Set My Heart On Fire (I'm Alive x And The Beat Goes On) (Jess Bays Remix)  00:02:36</pre>
</div>
<div class="bbCodeBlock bbCodeVfcHH HiddenContent">
<div class="attribution type">Hidden Content:</div>
<blockquote>You must reply before you can see the hidden data contained here.</blockquote>
</div></div>
<div class="messageTextEndMarker">&nbsp;</div>
</blockquote>
</article>]]></description>
                <author><![CDATA[mavs88]]></author>
                </item>

                
                <item>
                <title><![CDATA[【Vimeo】NICOLETA NUCA - Si fetele frang inimi (2160p, 4K)]]></title>
                <link><![CDATA[https://sharemania.us/threads/nicoleta-nuca-si-fetele-frang-inimi-2160p-4k.250297/]]></link>
                <description><![CDATA[<article>
<blockquote class="messageText SelectQuoteContainer ugc baseHtml">
<img src="https://i.postimg.cc/xdv2nqg8/NICOLETA-NUCA-Si-fetele-frang-inimi-mp4.jpg" class="bbCodeImage LbImage" alt="[​IMG]" data-url="https://i.postimg.cc/xdv2nqg8/NICOLETA-NUCA-Si-fetele-frang-inimi-mp4.jpg" style=""><br>
<br>
<div class="bbCodeBlock bbCodeCode">
<div class="type">Code:</div>
<pre>General
Complete name                  : G:\NICOLETA NUCA - Si fetele frang inimi.mp4
Format                         : MPEG-4
Format profile                 : Base Media / Version 2
Codec ID                       : mp42 (mp42/isom/avc1)
File size                      : 489 MiB
Duration                       : 2 min 50 s
Overall bit rate mode          : Variable
Overall bit rate               : 24.1 Mb/s
Frame rate                     : 25.000 FPS
Encoded date                   : 2023-06-13 09:47:40 UTC
Tagged date                    : 2023-06-13 09:47:40 UTC

Video
ID                             : 1
Format                         : AVC
Format/Info                    : Advanced Video Codec
Format profile                 : High@L5.2
Format settings                : CABAC / 5 Ref Frames
Format settings, CABAC         : Yes
Format settings, Reference fra : 5 frames
Codec ID                       : avc1
Codec ID/Info                  : Advanced Video Coding
Duration                       : 2 min 50 s
Bit rate                       : 23.9 Mb/s
Width                          : 3 840 pixels
Height                         : 2 160 pixels
Display aspect ratio           : 16:9
Frame rate mode                : Constant
Frame rate                     : 25.000 FPS
Color space                    : YUV
Chroma subsampling             : 4:2:0
Bit depth                      : 8 bits
Scan type                      : Progressive
Bits/(Pixel*Frame)             : 0.115
Stream size                    : 485 MiB (99%)
Writing library                : x264 core 161 r3027 4121277
Encoding settings              : cabac=1 / ref=5 / deblock=1:0:0 / analyse=0x3:0x113 / me=hex / subme=8 / psy=1 / psy_rd=1.00:0.00 / mixed_ref=1 / me_range=16 / chroma_me=1 / trellis=2 / 8x8dct=1 / cqm=0 / deadzone=21,11 / fast_pskip=1 / chroma_qp_offset=-2 / threads=4 / lookahead_threads=1 / sliced_threads=0 / nr=0 / decimate=1 / interlaced=0 / bluray_compat=0 / stitchable=1 / constrained_intra=0 / bframes=3 / b_pyramid=2 / b_adapt=2 / b_bias=0 / direct=3 / weightb=1 / open_gop=0 / weightp=2 / keyint=infinite / keyint_min=25 / scenecut=40 / intra_refresh=0 / rc_lookahead=50 / rc=crf / mbtree=1 / crf=20.0 / qcomp=0.60 / qpmin=5 / qpmax=69 / qpstep=4 / vbv_maxrate=24200 / vbv_bufsize=66000 / crf_max=0.0 / nal_hrd=none / filler=0 / ip_ratio=1.40 / aq=1:1.00
Encoded date                   : 2023-06-13 09:47:40 UTC
Tagged date                    : 2023-06-13 09:47:40 UTC
Color range                    : Limited
Color primaries                : BT.709
Transfer characteristics       : BT.709
Matrix coefficients            : BT.709
Codec configuration box        : avcC

Audio
ID                             : 2
Format                         : AAC LC
Format/Info                    : Advanced Audio Codec Low Complexity
Codec ID                       : mp4a-40-2
Duration                       : 2 min 50 s
Bit rate mode                  : Variable
Bit rate                       : 192 kb/s
Channel(s)                     : 2 channels
Channel layout                 : L R
Sampling rate                  : 48.0 kHz
Frame rate                     : 46.875 FPS (1024 SPF)
Compression mode               : Lossy
Stream size                    : 3.85 MiB (1%)
Encoded date                   : 2023-06-13 09:47:40 UTC
Tagged date                    : 2023-06-13 09:47:40 UTC
mdhd_Duration                  : 170538

</pre>
</div>
<div class="bbCodeBlock bbCodeVfcHH HiddenContent">
<div class="attribution type">Hidden Content:</div>
<blockquote>You must either reply or click 'Like' to see the hidden information contained here.</blockquote>
</div>
<div class="messageTextEndMarker">&nbsp;</div>
</blockquote>
</article>]]></description>
                <author><![CDATA[vitalya3]]></author>
                </item>

                </channel></rss>